<?xml version="1.0" encoding="UTF-8"?><svg id="Layer_2" xmlns="http://www.w3.org/2000/svg" viewBox="0 0 937.87 87.36"><defs><style>.cls-1{fill:none;stroke:#e0e0d1;stroke-miterlimit:10;stroke-width:.08px;}.cls-1,.cls-2{opacity:.68;}.cls-3{fill:#e0e0d1;}.cls-4{fill:#2b2a28;}</style></defs><g id="Board4"><g><path class="cls-4" d="M875.93,1.17c-15.9,.32-45.51,.9-61.04,1.14-.62,.04-1.38-.05-1.95,.11-2.27,.8-3.9,3.81-4.94,5.98l-1.1-1.88c20.99,2.17,42.43,9.12,57.53,24.57,8.47,8.76,13.21,20.9,13.18,33.07,0,3.78,.1,7.93,.22,11.72,.02,.8,.09,1.69-.11,2.68-.16,.01,.17,1.11-1.91,1.4-1.28-.32-1.07-.59-1.31-.71-1.09-1.5-1.82-3.14-2.79-4.64-6.65-10.92-16.9-19.21-28.39-24.77-18.64-8.98-39.73-11.49-60.28-11.4-243.22-.52-540.6,1.47-783.02-1.68,230.08-3.07,520.49-1.2,751.7-1.68,30.42,.11,65.07-2.3,93.07,11.74,13.48,6.37,25.3,16.93,32.24,30.22-.13,0,.19-.14-.92-.43-1.9,.3-1.51,1.18-1.62,1.06-.02,.07,0,.05,0,.02,.03-4.29-.28-9.15-.22-13.5,.01-.95-.11-2.84-.17-3.79-1.45-21.46-18.53-36.17-37.63-43.42-10.16-3.9-20.87-6.82-31.7-8.04,1.79-3.56,4.19-8.68,8.73-8.94,2.33,.02,5.87,.12,8.2,.14,11.73,.17,42.21,.79,54.26,1.02h0Z"/><path class="cls-4" d="M893.03,47.28c-.38-5.54-1.65-11.14-4.88-15.73-3.06-4.22-7.38-7.93-12.22-9.86l-9.02-3.27c12.85,0,45.03,0,57.88,0,.73,.02,2.9-.01,3.63,0,4.5-.43,8.97,2.91,9.4,7.51,.23,1.85-.31,3.66-.77,5.4-2.91,9.51-8.37,17.95-14.29,25.78-3.99,5.17-8.38,10.04-13.18,14.49-3.59,3.32-7.49,6.46-11.57,9.17-7.05,4.05-15.19,7.13-23.42,6.5,6.47-.58,12.37-3.28,17.67-6.66,10.72-6.79,20.16-15.43,27.85-25.55,6.07-8.13,11.93-16.93,14.26-26.87,.91-3.75-2.22-6.83-5.95-6.42-9.1,0-42.32,0-51.96,0l.53-3.27c12.02,4.39,17.62,16.56,16.05,28.77h0Z"/><path class="cls-4" d="M807.49,49.09c1.04-1.17,2.1-2.33,3.26-3.62,.37,.15,.85,.36,1.34,.53,.13,.05,.33,.08,.46,.05l1.31,.56c.06,7.24,4.32,14.1,11.4,17.13s14.98,1.39,20.26-3.56l4.89,2.09c.35,.53,.81,.61,1.32,.57,.32-.03,.65-.1,.99-.15-.13,.14-.26,.27-.39,.41-.67,.7-1.33,1.4-2.04,2.06-.18,.17-.56,.22-.84,.19-1.23-.13-2.46-.37-3.69-.44-.44-.03-1.08,.2-1.31,.53-.19,.26,.1,.86,.19,1.31,0,.02,.05,.03,.06,.05,.1,1.3,1.12,1.06,2.03,1.29-1.04,.56-2.08,1.15-3.14,1.67-.18,.09-.5-.04-.73-.15-1.16-.51-2.29-1.1-3.47-1.55-.39-.15-.99-.13-1.35,.07-.46,.25-.28,.81-.3,1.31-.04,1.19,.66,1.53,1.63,1.73,0,.07-.02,.15-.03,.22-1.17,.21-2.34,.44-3.52,.62-.17,.02-.39-.21-.56-.36-1.11-.99-2.2-1.99-3.42-3.09l.02-.51c.14-.31,.3-.65,.43-1,.06-.16,.03-.42-.07-.55-.05-.06-.18-.1-.3-.1v-.05c-.06,0-.12,.01-.16,.04-.13,.08-.22,.34-.2,.51,.1,.78,.12,1.51-.71,1.97-.17,.09-.24,.38-.33,.58-.04,.09,.01,.22-.03,.3-.5,1.09,.07,1.75,1.03,2.25-.04,.06-.08,.12-.12,.18-1.17-.16-2.33-.3-3.49-.49-.17-.03-.35-.29-.46-.48-.66-1.14-1.32-2.29-1.96-3.44-.26-.48-.64-.86-1.17-.66-.37,.14-.64,.57-.94,.88-.85,.86-.37,1.64,.12,2.51-1.02-.48-2.04-.93-3.04-1.45-.2-.11-.36-.42-.42-.66-.29-1.27-.48-2.55-.82-3.8-.11-.41-.46-.9-.83-1.08-.5-.24-1,.07-1.28,.59-.05,.09-.11,.21-.19,.23-.76,.23-.65,.76-.48,1.31,.07,.24,.17,.48,.26,.72-.07,.04-.13,.08-.2,.12-.76-.73-1.56-1.43-2.28-2.2-.21-.22-.35-.63-.33-.93,.09-1.26,.26-2.52,.4-3.78,.06-.54,.04-1.05-.5-1.36-.53-.3-.99-.2-1.4,.24-.05,.05-.12,.13-.18,.13-.91-.07-.89,.58-.92,1.19,0,.22-.03,.45-.19,.73-.55-1.01-1.12-2-1.62-3.02-.1-.2-.02-.55,.08-.79,.5-1.17,1.01-2.33,1.57-3.47,.25-.52,.32-.99-.06-1.45-.37-.45-.85-.43-1.34-.22-.09,.04-.2,.1-.28,.08-.77-.25-1.03,.2-1.21,.82-.06,.21-.18,.4-.46,.6-.21-1.13-.43-2.27-.6-3.41-.03-.17,.16-.41,.31-.57Z"/><path class="cls-4" d="M812.62,30.23c.13-.14,.26-.27,.39-.41,.67-.7,1.33-1.4,2.03-2.06,.18-.17,.56-.22,.84-.19,1.23,.13,2.46,.37,3.69,.44,.45,.03,1.08-.2,1.31-.53,.19-.26-.1-.86-.19-1.31,0-.02-.05-.03-.06-.05-.1-1.3-1.12-1.06-2.03-1.29,1.04-.56,2.08-1.15,3.14-1.67,.18-.09,.5,.04,.73,.15,1.16,.51,2.29,1.1,3.48,1.55,.39,.15,.99,.13,1.35-.07,.46-.25,.28-.81,.3-1.31,.04-1.19-.66-1.53-1.63-1.73,.01-.07,.02-.15,.03-.23,1.17-.21,2.34-.44,3.52-.62,.17-.02,.39,.21,.56,.36,1.11,.99,2.2,1.99,3.42,3.09l-.02,.51c-.14,.31-.3,.65-.43,1-.06,.16-.03,.42,.07,.55,.05,.06,.18,.1,.3,.1v.05c.06,0,.12-.01,.17-.04,.13-.08,.22-.34,.2-.51-.1-.79-.12-1.51,.71-1.97,.17-.09,.24-.38,.33-.58,.04-.09-.01-.22,.02-.3,.5-1.09-.07-1.75-1.03-2.25,.04-.06,.08-.12,.12-.18,1.17,.16,2.33,.3,3.49,.49,.17,.03,.34,.29,.45,.48,.66,1.14,1.32,2.29,1.96,3.44,.26,.48,.64,.86,1.17,.66,.37-.14,.64-.57,.94-.88,.85-.86,.37-1.64-.12-2.51,1.02,.48,2.04,.93,3.04,1.45,.2,.11,.36,.42,.42,.67,.29,1.27,.48,2.55,.82,3.8,.11,.41,.45,.9,.83,1.08,.5,.24,1-.07,1.28-.59,.05-.09,.11-.21,.18-.23,.76-.22,.65-.76,.48-1.31-.07-.24-.17-.48-.26-.72,.07-.04,.14-.08,.2-.12,.76,.73,1.56,1.43,2.28,2.2,.21,.22,.35,.63,.33,.93-.09,1.26-.26,2.52-.4,3.78-.06,.54-.04,1.05,.5,1.35,.53,.3,.99,.2,1.4-.24,.05-.05,.12-.13,.18-.13,.91,.07,.89-.58,.92-1.19,0-.22,.03-.45,.19-.73,.55,1,1.11,2,1.62,3.02,.1,.21,.02,.55-.08,.79-.5,1.17-1.01,2.33-1.57,3.47-.25,.52-.31,.99,.06,1.45,.37,.45,.85,.43,1.34,.21,.09-.04,.2-.1,.28-.08,.77,.25,1.03-.2,1.21-.82,.06-.21,.18-.4,.46-.6,.2,1.13,.43,2.27,.6,3.41,.03,.17-.16,.41-.31,.57-1.04,1.17-2.1,2.33-3.26,3.62-.37-.15-.85-.36-1.34-.53-.14-.05-.33-.08-.46-.05l-1.31-.56c-.06-7.23-4.32-14.09-11.4-17.13-7.08-3.03-14.98-1.39-20.27,3.55l-4.89-2.1c-.35-.53-.81-.61-1.31-.56-.32,.03-.65,.1-1,.15Z"/><path class="cls-1" d="M846.01,60.4c-5.51,5.22-13.69,7-20.97,3.88-7.28-3.12-11.64-10.28-11.65-17.86"/><path class="cls-1" d="M819.36,32.46c5.47-5.13,13.62-6.85,20.91-3.72,7.29,3.12,11.67,10.22,11.72,17.71"/><g class="cls-2"><path class="cls-3" d="M807.9,51.69c-.15-.66-.69-1.67-.15-2.23l.49-.57c.67-.74,1.34-1.49,2.08-2.17-.74,1.01-1.57,1.96-2.4,2.88-.45,.45-.04,1.47-.02,2.08h0Z"/></g><g class="cls-2"><path class="cls-3" d="M810.65,59.02c-.34-.58-1.16-1.39-.8-2.08l.3-.69c.42-.91,.84-1.82,1.34-2.69-.4,1.18-.91,2.34-1.44,3.47-.3,.56,.4,1.41,.6,1.99h0Z"/></g><g class="cls-2"><path class="cls-3" d="M822.22,69.42c-.61-.28-1.74-.47-1.85-1.25l-.15-.73c-.17-.99-.36-1.97-.44-2.97,.34,1.2,.59,2.44,.81,3.67,.07,.63,1.14,.93,1.64,1.29h0Z"/></g><g class="cls-2"><path class="cls-3" d="M829.93,71.53c-.67-.04-1.8,.18-2.17-.51l-.4-.63c-.51-.86-1.03-1.71-1.47-2.62,.75,1,1.42,2.07,2.06,3.14,.29,.56,1.39,.46,1.99,.62h0Z"/></g><g class="cls-2"><path class="cls-3" d="M837.69,71.3c-.66,.15-1.67,.69-2.23,.15l-.57-.49c-.74-.67-1.49-1.34-2.17-2.08,1.01,.74,1.96,1.57,2.88,2.4,.45,.45,1.47,.04,2.08,.02h0Z"/></g><g class="cls-2"><path class="cls-3" d="M845.16,68.61c-.58,.34-1.4,1.14-2.09,.78l-.69-.31c-.9-.43-1.81-.86-2.67-1.37,1.17,.42,2.33,.94,3.45,1.48,.56,.31,1.42-.38,2-.58h0Z"/></g><g class="cls-2"><path class="cls-3" d="M851.31,63.64c-.46,.49-1.01,1.5-1.77,1.35l-.74-.09c-.99-.15-1.98-.29-2.96-.53,1,.04,2,.17,2.99,.29l.74,.11c.63,.13,1.24-.78,1.74-1.14h0Z"/></g><g class="cls-2"><path class="cls-3" d="M815.7,65.22c-.52-.43-1.56-.91-1.46-1.68l.04-.75c.09-1,.17-1.99,.34-2.98,.03,1.01-.04,2-.1,3l-.07,.75c-.09,.64,.86,1.19,1.25,1.67h0Z"/></g><g class="cls-2"><path class="cls-3" d="M857.47,41.37c.15,.66,.69,1.67,.15,2.23l-.49,.57c-.67,.74-1.34,1.49-2.08,2.17,.74-1.01,1.57-1.96,2.4-2.88,.45-.44,.04-1.47,.02-2.08h0Z"/></g><g class="cls-2"><path class="cls-3" d="M854.72,34.03c.34,.58,1.16,1.39,.8,2.08l-.3,.69c-.42,.91-.84,1.82-1.34,2.69,.4-1.18,.91-2.34,1.44-3.47,.3-.56-.4-1.41-.6-1.99h0Z"/></g><g class="cls-2"><path class="cls-3" d="M843.15,23.63c.61,.28,1.74,.47,1.85,1.25l.15,.73c.17,.99,.35,1.97,.44,2.97-.28-.96-.48-1.95-.68-2.93l-.13-.74c-.08-.64-1.13-.92-1.64-1.29h0Z"/></g><g class="cls-2"><path class="cls-3" d="M835.44,21.53c.67,.04,1.8-.18,2.17,.51l.4,.63c.51,.86,1.03,1.71,1.47,2.62-.61-.8-1.14-1.65-1.68-2.49l-.38-.64c-.31-.57-1.39-.46-1.99-.62h0Z"/></g><g class="cls-2"><path class="cls-3" d="M827.68,21.76c.66-.15,1.67-.69,2.23-.15l.57,.49c.74,.67,1.49,1.34,2.17,2.08-1.01-.74-1.96-1.57-2.88-2.4-.45-.45-1.47-.04-2.08-.02h0Z"/></g><g class="cls-2"><path class="cls-3" d="M820.21,24.45c.59-.34,1.4-1.14,2.09-.78l.69,.31c.9,.43,1.81,.86,2.67,1.37-1.17-.42-2.33-.94-3.45-1.48-.56-.31-1.42,.38-2,.58h0Z"/></g><g class="cls-2"><path class="cls-3" d="M814.06,29.42c.46-.49,1.01-1.5,1.77-1.35l.74,.09c.99,.15,1.98,.29,2.96,.53-1-.04-2-.17-2.99-.29l-.74-.11c-.63-.13-1.24,.78-1.74,1.14h0Z"/></g><g class="cls-2"><path class="cls-3" d="M849.67,27.83c.53,.44,1.55,.9,1.46,1.68l-.04,.75c-.09,1-.17,1.99-.34,2.98-.03-1,.04-2,.1-3l.07-.75c.08-.64-.86-1.19-1.25-1.67h0Z"/></g></g></g></svg>