<?xml version="1.0" encoding="UTF-8"?><svg id="Layer_2" xmlns="http://www.w3.org/2000/svg" viewBox="0 0 628.53 366.01"><defs><style>.cls-1{letter-spacing:.05em;}.cls-2{fill:#2b2a28;}.cls-3{letter-spacing:.08em;}.cls-4{fill:#231f20;font-family:Calder-LC, Calder;font-size:32px;stroke:#2b2a28;stroke-miterlimit:10;}.cls-5{letter-spacing:.06em;}</style></defs><g id="Board10-12MaskedV"><g><path class="cls-2" d="M321.64,5.93L204.69,.28C190.71,.06,113.74,.08,102.87,0c-4.73-.04-10.94,1.84-15.81,5.93-6,4.76-12.07,15.7-15.42,22.59-1.4,2.87,.48,6.26,3.65,6.59,42.5,4.45,223.44,32.11,240.12,188.87,1.17,11-12.43,17.08-19.74,8.78C259.92,192.19,173.74,122.74,0,131.57c34.14,2.95,205.82,14.91,287.98,109.97,24.67,30.37,27.07,47.97,36.38,42.6,5.51-3.85,6.74-9.94,6.92-39.35,.29-46.18-16.33-106.48-60.8-143.58,0,0-55.51-56.22-169.48-74.48-8.14-1.3-8.6-13.23-.5-14.77,.48-.09,.98-.14,1.48-.14,22.25-.14,74.22,.37,100.55-.41,48.16-1.86,119.1-5.46,119.1-5.46Z"/><path class="cls-2" d="M318.87,76.28c26.46,12.06,62.03,38.29,63.31,92.4,0,0,5.89-44.16-18.94-75.08-4.72-5.88-.53-14.61,7.02-14.58,50.02,.17,143.44,.7,143.44,.7,0,0,16.94,1.17,14.31,21.48s-24.85,73.01-86.96,135.88c-62.12,62.87-110.67,72.78-123.76,72.78,11.58,1.95,36.42,.35,76.83-19.7,25.22-12.51,97.85-73.88,137.47-160,4.41-11.15,8.64-24.81,8.66-34.99,.03-14.42-10.52-26.36-25.41-28.26-38.34-.26-94.16-.07-193.94-.01-5.28,0-6.81,7.18-2.01,9.37Z"/></g><g><path class="cls-2" d="M236.85,223.36c-1.77,.15-3.4-.13-4.64-1.99l-15.57-6.67c-19.44,18.39-48.28,24.68-74.01,13.66-25.7-11.01-41.06-36.27-41.12-63.04l-2.93-1.24c-.47,.11-1.15-.02-1.63-.17-1.75-.62-3.44-1.35-4.75-1.88-4.08,4.53-7.83,8.64-11.48,12.77-.51,.58-1.18,1.41-1.09,2.01,.6,4.02,1.37,8.02,2.1,12.02,.98-.71,1.41-1.39,1.62-2.12,.62-2.18,1.54-3.78,4.26-2.89,.28,.09,.68-.15,.98-.28,1.75-.77,3.42-.83,4.75,.75,1.33,1.62,1.09,3.29,.21,5.11-1.95,4.04-3.76,8.15-5.52,12.25-.36,.86-.64,2.07-.28,2.8,1.77,3.61,3.78,7.12,5.71,10.67,.56-1.01,.64-1.8,.66-2.59,.11-2.16,.02-4.43,3.25-4.19,.19,0,.45-.28,.62-.45,1.43-1.56,3.08-1.93,4.94-.86,1.9,1.09,1.99,2.87,1.77,4.79-.53,4.43-1.11,8.87-1.43,13.32-.09,1.09,.41,2.52,1.15,3.29,2.54,2.72,5.35,5.2,8.04,7.76,.26-.15,.49-.28,.73-.43-.3-.86-.64-1.71-.9-2.57-.6-1.95-1-3.83,1.69-4.62,.26-.09,.49-.51,.64-.81,1-1.84,2.74-2.93,4.51-2.1,1.3,.64,2.54,2.33,2.91,3.81,1.2,4.41,1.88,8.94,2.91,13.41,.17,.88,.75,1.97,1.48,2.35,3.51,1.82,7.12,3.42,10.71,5.11-1.73-3.08-3.44-5.82-.45-8.87,1.09-1.09,2.03-2.59,3.34-3.08,1.86-.71,3.19,.64,4.11,2.33,2.27,4.06,4.58,8.1,6.93,12.12,.38,.66,1,1.58,1.6,1.69,4.11,.68,8.21,1.18,12.34,1.75,.13-.21,.28-.43,.43-.64-3.38-1.77-5.39-4.08-3.64-7.96,.15-.3-.04-.75,.09-1.07,.34-.73,.58-1.73,1.18-2.05,2.95-1.62,2.87-4.17,2.52-6.95-.09-.6,.23-1.52,.71-1.8,.13-.09,.34-.13,.58-.13v.19c.41,0,.88,.13,1.05,.34,.34,.47,.45,1.39,.24,1.95-.45,1.26-1.03,2.46-1.52,3.55l-.06,1.8c4.3,3.89,8.17,7.42,12.08,10.91,.58,.53,1.39,1.37,1.99,1.28,4.15-.6,8.28-1.41,12.42-2.16,.02-.28,.06-.53,.11-.79-3.42-.73-5.9-1.92-5.75-6.12,.06-1.77-.53-3.74,1.07-4.62,1.28-.71,3.38-.79,4.77-.26,4.17,1.6,8.19,3.66,12.27,5.47,.79,.36,1.95,.83,2.57,.51,3.74-1.86,7.4-3.91,11.08-5.9-3.21-.79-6.78,.04-7.14-4.55-.02-.06-.19-.11-.21-.17-.3-1.58-1.3-3.7-.66-4.62,.83-1.18,3.06-1.97,4.64-1.86,4.34,.23,8.66,1.07,13.02,1.54,.98,.09,2.31-.08,2.97-.68,2.48-2.33,4.81-4.81,7.18-7.27,.45-.47,.92-.96,1.37-1.43-1.2,.17-2.37,.45-3.51,.53Zm-155.16-47.04l.34,6.67s-1.58-6.09-.79-6.99c.75-.81,7.83-8.83,9.13-10.31l-8.68,10.63Zm7.74,26.26l2.31,6.29s-3.31-5.35-2.82-6.44c.19-.43,1.15-2.54,2.22-4.92,.09-.17,.15-.34,.23-.51,.06-.17,.15-.34,.24-.51,.15-.34,.32-.7,.47-1.05,.94-2.1,1.84-4.08,2.31-5.11l-4.96,12.25Zm15.29,23.09c.09-1.09,.86-11.72,1-13.71l-.49,13.71,4.34,5.09s-4.94-3.89-4.85-5.09Zm21.98,17.21c-.02-.06-.02-.17-.06-.3-.02-.13-.04-.3-.09-.51-.04-.19-.09-.41-.13-.66-.04-.24-.11-.51-.15-.81-.11-.53-.21-1.11-.34-1.75-.04-.23-.09-.47-.13-.71-.28-1.45-.58-3.01-.86-4.45-.04-.23-.09-.45-.13-.66-.15-.81-.3-1.56-.41-2.16-.04-.26-.09-.49-.13-.71-.02-.04-.02-.11-.02-.17l3.06,12.7,5.39,3.85s-5.77-2.48-6.01-3.66Zm26.3,9.81c-.09-.15-.32-.53-.66-1.07-.11-.19-.24-.41-.39-.64-.09-.15-.19-.3-.3-.47-.13-.23-.28-.49-.45-.75-.6-.96-1.26-2.05-1.95-3.14-.09-.17-.19-.32-.3-.49-.66-1.09-1.33-2.16-1.88-3.06-.11-.19-.21-.34-.32-.51-.24-.41-.45-.75-.62-1.03l7.29,10.65,6.48,1.8s-6.29-.26-6.91-1.28Zm27.31,1.24s-.13-.13-.26-.21c-.09-.11-.21-.21-.36-.34-.41-.34-.94-.83-1.58-1.39-.23-.21-.51-.45-.77-.68-.28-.23-.56-.49-.83-.75-.28-.26-.58-.51-.88-.77-2.35-2.07-4.88-4.3-5.62-4.96l10.69,8.62,6.61-.28s-6.09,1.58-6.99,.77Zm33.34-10.24c-.58,.34-5.41,3.21-6.44,2.74-.06-.02-.15-.06-.28-.13-.13-.06-.28-.13-.45-.21-.34-.15-.77-.36-1.28-.6-1.28-.6-2.99-1.39-4.66-2.16-.28-.13-.53-.26-.81-.39-.51-.23-1-.47-1.48-.68-.21-.11-.41-.19-.6-.28-.43-.19-.81-.39-1.18-.56-.13-.04-.26-.11-.36-.17-.36-.15-.68-.3-.94-.43l12.21,4.96,6.27-2.1Zm16.36-13.04c-.15-.02-.47-.06-.94-.15-.3-.02-.64-.09-1-.13-.94-.13-2.14-.3-3.42-.47-.19-.02-.38-.04-.56-.06-.28-.04-.58-.09-.88-.13-.38-.04-.75-.11-1.11-.15-1.18-.17-2.33-.32-3.29-.45-.15-.02-.3-.04-.45-.06-.32-.04-.6-.09-.86-.11-.23-.04-.47-.06-.64-.11h-.11s-.04-.02-.06-.02-.06,0-.09-.02l13.51,1.15,5.22-3.76c-.47,.51-4.21,4.62-5.32,4.47Z"/><path class="cls-2" d="M216.02,214.16c-19.23,18.19-47.76,24.41-73.2,13.52-25.42-10.89-40.61-35.87-40.67-62.35l1.67,.72c.21,25.28,15.08,49.22,39.79,59.82,24.7,10.6,52.31,4.84,70.75-12.42l1.67,.72Z"/><path class="cls-2" d="M102.07,107.83c1.77-.15,3.4,.13,4.64,1.99l15.57,6.67c19.44-18.39,48.28-24.68,74.01-13.66,25.7,11.01,41.06,36.27,41.12,63.04l2.93,1.24c.47-.11,1.15,.02,1.63,.17,1.75,.62,3.44,1.35,4.75,1.88,4.08-4.53,7.83-8.64,11.48-12.77,.51-.58,1.18-1.41,1.09-2.01-.6-4.02-1.37-8.02-2.1-12.02-.98,.71-1.41,1.39-1.62,2.12-.62,2.18-1.54,3.78-4.26,2.89-.28-.09-.68,.15-.98,.28-1.75,.77-3.42,.83-4.75-.75-1.33-1.62-1.09-3.29-.21-5.11,1.95-4.04,3.76-8.15,5.52-12.25,.36-.86,.64-2.07,.28-2.8-1.77-3.61-3.78-7.12-5.71-10.67-.56,1.01-.64,1.8-.66,2.59-.11,2.16-.02,4.43-3.25,4.19-.19,0-.45,.28-.62,.45-1.43,1.56-3.08,1.93-4.94,.86-1.9-1.09-1.99-2.87-1.77-4.79,.53-4.43,1.11-8.87,1.43-13.32,.09-1.09-.41-2.52-1.15-3.29-2.54-2.72-5.35-5.2-8.04-7.76-.26,.15-.49,.28-.73,.43,.3,.86,.64,1.71,.9,2.57,.6,1.95,1,3.83-1.69,4.62-.26,.09-.49,.51-.64,.81-1,1.84-2.74,2.93-4.51,2.1-1.3-.64-2.54-2.33-2.91-3.81-1.2-4.41-1.88-8.94-2.91-13.41-.17-.88-.75-1.97-1.48-2.35-3.51-1.82-7.12-3.42-10.71-5.11,1.73,3.08,3.44,5.82,.45,8.87-1.09,1.09-2.03,2.59-3.34,3.08-1.86,.71-3.19-.64-4.11-2.33-2.27-4.06-4.58-8.1-6.93-12.12-.38-.66-1-1.58-1.6-1.69-4.11-.68-8.21-1.18-12.34-1.75-.13,.21-.28,.43-.43,.64,3.38,1.77,5.39,4.08,3.64,7.96-.15,.3,.04,.75-.09,1.07-.34,.73-.58,1.73-1.18,2.05-2.95,1.62-2.87,4.17-2.52,6.95,.09,.6-.23,1.52-.71,1.8-.13,.09-.34,.13-.58,.13v-.19c-.41,0-.88-.13-1.05-.34-.34-.47-.45-1.39-.24-1.95,.45-1.26,1.03-2.46,1.52-3.55l.06-1.8c-4.3-3.89-8.17-7.42-12.08-10.91-.58-.53-1.39-1.37-1.99-1.28-4.15,.6-8.28,1.41-12.42,2.16-.02,.28-.06,.53-.11,.79,3.42,.73,5.9,1.92,5.75,6.12-.06,1.77,.53,3.74-1.07,4.62-1.28,.71-3.38,.79-4.77,.26-4.17-1.6-8.19-3.66-12.27-5.47-.79-.36-1.95-.83-2.57-.51-3.74,1.86-7.4,3.91-11.08,5.9,3.21,.79,6.78-.04,7.14,4.55,.02,.06,.19,.11,.21,.17,.3,1.58,1.3,3.7,.66,4.62-.83,1.18-3.06,1.97-4.64,1.86-4.34-.23-8.66-1.07-13.02-1.54-.98-.09-2.31,.08-2.97,.68-2.48,2.33-4.81,4.81-7.18,7.27-.45,.47-.92,.96-1.37,1.43,1.2-.17,2.37-.45,3.51-.53Zm155.16,47.04l-.34-6.67s1.58,6.09,.79,6.99c-.75,.81-7.83,8.83-9.13,10.31l8.68-10.63Zm-7.74-26.26l-2.31-6.29s3.31,5.35,2.82,6.44c-.19,.43-1.15,2.54-2.22,4.92-.09,.17-.15,.34-.23,.51-.06,.17-.15,.34-.24,.51-.15,.34-.32,.7-.47,1.05-.94,2.1-1.84,4.08-2.31,5.11l4.96-12.25Zm-15.29-23.09c-.09,1.09-.86,11.72-1,13.71l.49-13.71-4.34-5.09s4.94,3.89,4.85,5.09Zm-21.98-17.21c.02,.06,.02,.17,.06,.3,.02,.13,.04,.3,.09,.51,.04,.19,.09,.41,.13,.66,.04,.24,.11,.51,.15,.81,.11,.53,.21,1.11,.34,1.75,.04,.23,.09,.47,.13,.71,.28,1.45,.58,3.01,.86,4.45,.04,.23,.09,.45,.13,.66,.15,.81,.3,1.56,.41,2.16,.04,.26,.09,.49,.13,.71,.02,.04,.02,.11,.02,.17l-3.06-12.7-5.39-3.85s5.77,2.48,6.01,3.66Zm-26.3-9.81c.09,.15,.32,.53,.66,1.07,.11,.19,.24,.41,.39,.64,.09,.15,.19,.3,.3,.47,.13,.23,.28,.49,.45,.75,.6,.96,1.26,2.05,1.95,3.14,.09,.17,.19,.32,.3,.49,.66,1.09,1.33,2.16,1.88,3.06,.11,.19,.21,.34,.32,.51,.24,.41,.45,.75,.62,1.03l-7.29-10.65-6.48-1.8s6.29,.26,6.91,1.28Zm-27.31-1.24s.13,.13,.26,.21c.09,.11,.21,.21,.36,.34,.41,.34,.94,.83,1.58,1.39,.23,.21,.51,.45,.77,.68,.28,.23,.56,.49,.83,.75,.28,.26,.58,.51,.88,.77,2.35,2.07,4.88,4.3,5.62,4.96l-10.69-8.62-6.61,.28s6.09-1.58,6.99-.77Zm-33.34,10.24c.58-.34,5.41-3.21,6.44-2.74,.06,.02,.15,.06,.28,.13,.13,.06,.28,.13,.45,.21,.34,.15,.77,.36,1.28,.6,1.28,.6,2.99,1.39,4.66,2.16,.28,.13,.53,.26,.81,.39,.51,.23,1,.47,1.48,.68,.21,.11,.41,.19,.6,.28,.43,.19,.81,.39,1.18,.56,.13,.04,.26,.11,.36,.17,.36,.15,.68,.3,.94,.43l-12.21-4.96-6.27,2.1Zm-16.36,13.04c.15,.02,.47,.06,.94,.15,.3,.02,.64,.09,1,.13,.94,.13,2.14,.3,3.42,.47,.19,.02,.38,.04,.56,.06,.28,.04,.58,.09,.88,.13,.38,.04,.75,.11,1.11,.15,1.18,.17,2.33,.32,3.29,.45,.15,.02,.3,.04,.45,.06,.32,.04,.6,.09,.86,.11,.23,.04,.47,.06,.64,.11h.11s.04,.02,.06,.02,.06,0,.09,.02l-13.51-1.15-5.22,3.76c.47-.51,4.21-4.62,5.32-4.47Z"/><path class="cls-2" d="M122.9,117.02c19.23-18.19,47.76-24.41,73.2-13.52,25.42,10.89,40.61,35.87,40.67,62.35l-1.67-.72c-.21-25.28-15.08-49.22-39.79-59.82-24.7-10.6-52.31-4.84-70.75,12.42l-1.67-.72Z"/></g><g><g><polygon class="cls-2" points="199.79 31.84 199.62 33.93 199.7 35.07 199.7 35.88 199.75 36.71 200.07 37.97 200.48 39.2 200.98 40.34 201.3 41.02 201.84 41.93 202.56 42.93 203.66 44.11 204.61 44.84 205.52 45.53 206.65 46.25 207.66 46.75 208.79 47.25 209.84 47.52 210.24 47.61 211.43 47.8 212.02 47.86 212.02 51.03 210.98 50.98 209.79 50.75 208.84 50.52 208.07 50.29 207.43 50.07 206.06 49.52 205.24 49.03 204.25 48.52 203.29 47.93 202.56 47.43 201.84 46.79 200.02 44.89 199.7 44.43 199.2 43.84 198.79 43.15 198.25 42.38 197.8 41.34 197.38 40.53 197.06 39.47 196.84 38.56 196.66 37.8 196.47 36.89 196.43 35.83 196.3 34.65 196.3 33.11 196.47 31.93 196.66 31.12 196.84 30.02 197.11 29.11 197.29 28.56 198.12 26.39 198.74 25.38 198.98 24.98 199.33 24.39 201.2 22.11 202.51 20.84 203.29 20.3 204.48 19.61 205.24 19.12 205.88 18.8 206.52 18.56 207.61 18.21 208.84 17.84 209.88 17.57 210.88 17.47 211.79 17.34 212.02 17.34 212.02 20.64 210.61 20.7 209.75 20.84 208.74 21.07 207.43 21.61 206.33 22.11 205.84 22.43 205.39 22.84 204.2 23.7 203.47 24.43 202.97 25.02 202.11 26.25 201.43 27.38 200.88 28.43 200.48 29.15 200.16 30.29 199.79 31.84"/><polygon class="cls-2" points="229.8 34.7 229.75 35.61 229.61 36.71 229.19 38.66 228.65 40.7 227.98 42.34 227.34 43.34 226.79 44.2 226.06 45.21 224.48 46.79 221.84 48.61 220.98 49.16 219.97 49.62 219.16 49.92 217.7 50.52 216.79 50.75 216.01 50.84 215.39 50.93 214.97 50.98 214.27 51.11 214.27 47.83 215.02 47.66 215.39 47.61 215.88 47.56 216.92 47.29 218.57 46.7 219.65 46.15 220.42 45.7 221.01 45.24 221.43 45.02 222.43 44.11 223.65 42.88 224.34 41.89 225.15 40.61 225.66 39.52 225.93 38.61 226.25 37.57 226.38 36.39 226.52 35.43 226.52 34.11 226.43 33.24 226.38 32.03 226.2 31.02 225.98 30.16 225.61 29.07 225.15 27.89 224.61 26.79 223.74 25.48 222.2 24.02 221.2 23.16 220.34 22.57 219.61 22.16 218.61 21.61 218.02 21.39 217.11 21.07 215.79 20.75 214.97 20.61 214.27 20.55 214.27 17.51 214.93 17.57 216.43 17.79 217.29 18.07 218.15 18.24 219.38 18.75 220.79 19.25 221.62 19.75 222.2 20.03 224.38 21.66 225.47 22.75 226.01 23.34 226.47 23.75 227.11 24.66 227.7 25.8 228.43 27.2 228.97 28.93 229.19 29.75 229.51 31.12 229.65 31.74 229.7 32.93 229.8 34.7"/></g><g><polygon class="cls-2" points="263.01 27.35 263.06 28.88 263.06 29.79 262.97 31.07 262.97 33.75 262.87 35.56 262.83 37.25 262.83 39.06 262.79 40.56 262.65 41.84 262.37 43.02 262.24 43.84 262.06 44.47 261.46 45.8 260.92 46.93 260.38 47.61 259.56 48.47 258.47 49.25 257.69 49.75 256.83 50.16 256.11 50.43 255.01 50.79 254.15 50.93 253.11 51.07 252.2 51.07 251.51 51.13 251.51 48.1 252.29 48.07 253.74 47.88 254.79 47.56 255.28 47.34 255.52 47.25 255.97 47.02 256.7 46.57 257.37 46.11 258.01 45.29 258.74 44.03 259.29 42.34 259.51 41.2 259.56 40.56 259.61 39.79 259.74 38.29 259.64 36.2 259.61 34.97 259.69 34.25 259.64 32.84 259.64 31.47 259.69 30.43 259.74 29.34 259.64 28.26 259.64 27.38 259.69 26.57 259.69 25.8 259.74 24.84 259.74 24.07 259.79 22.84 259.83 21.79 259.83 19.34 259.96 18.8 260.42 18.56 260.74 18.53 261.43 18.61 262.24 18.7 262.6 18.88 262.87 19.15 262.97 19.75 262.87 21.16 262.87 22.38 262.97 23.16 263.06 25.8 263.01 27.35"/><polygon class="cls-2" points="249.26 48.14 249.26 51.2 248.87 51.2 246.83 51.02 245.97 50.88 245.2 50.7 244.11 50.43 243.01 49.92 241.83 49.2 240.69 48.34 239.97 47.52 239.16 46.29 238.7 45.53 238.28 44.52 238.06 43.93 237.79 42.84 237.66 41.71 237.56 41.02 237.51 40.16 237.51 39.11 237.56 38.16 237.61 37.16 237.66 35.93 237.56 34.79 237.61 33.52 237.61 32.75 237.56 31.44 237.56 29.84 237.66 28.84 237.66 26.44 237.69 25.61 237.69 23.88 237.74 22.3 237.74 20.93 237.83 19.71 237.93 18.93 238.01 18.56 238.28 18.34 238.52 18.24 239.19 18.29 239.93 18.29 240.52 18.43 240.92 19.2 240.97 20.11 240.97 21.25 240.88 22.2 240.88 23.61 240.84 25.29 240.84 27.75 240.79 28.61 240.69 30.43 240.69 33.88 240.74 34.97 240.74 35.66 240.79 36.15 240.74 37.16 240.79 38.2 240.74 39.06 240.74 39.75 240.84 40.53 240.88 41.74 241.11 42.75 241.29 43.47 241.6 44.11 242.34 45.34 242.93 45.98 243.97 46.84 245.01 47.29 246.46 47.75 247.37 47.93 247.74 47.93 248.87 48.12 249.26 48.14"/></g><g><polygon class="cls-2" points="295.51 19.84 295.38 20.75 295.14 21.12 294.55 21.39 293.96 21.39 293.05 21.29 291.78 21.29 290.73 21.25 286.86 21.25 286.86 18.13 287.42 18.16 288.51 18.16 289.37 18.21 290.55 18.21 293.96 18.34 294.77 18.34 295.19 18.48 295.38 18.8 295.51 19.84"/><polygon class="cls-2" points="284.6 18.07 284.6 22.25 284.55 22.48 284.55 22.97 284.42 24.25 284.42 26.2 284.37 27.94 284.37 29.7 284.32 30.21 284.37 30.83 284.42 31.93 284.42 32.97 284.37 33.98 284.37 35.83 284.28 36.89 284.24 38.16 284.24 43.88 284.19 45.16 284.19 46.07 284.15 46.79 284.19 47.25 284.15 48.29 283.97 49.47 283.6 50.02 283.19 50.11 282.47 50.07 281.32 49.89 280.97 49.43 280.92 49.2 280.92 48.25 281.05 47.29 280.97 46.15 280.92 45.34 281 43.98 280.97 42.84 280.92 41.47 280.92 40.61 281.05 39.52 281.05 38.84 281.1 37.84 281.1 36.29 281.14 35.38 281.19 34.34 281.1 33.16 281.1 26.74 281.14 25.11 281.14 23.61 281.1 22.48 281.05 21.88 280.82 21.43 279.87 21.25 279 21.25 278.06 21.16 276.28 21.12 274.64 21.02 272.82 21.02 271.92 20.93 271.28 20.93 270.74 20.89 270.28 20.48 270.2 20.11 270.15 19.61 270.23 18.7 270.6 18.07 271.24 17.94 272.05 17.97 273.6 17.97 275.15 18.02 276.14 17.97 281.96 17.97 282.74 18.11 283.38 18.02 284.01 18.02 284.37 18.07 284.6 18.07"/></g><g><polygon class="cls-2" points="328.77 26.71 328.77 27.52 328.82 28.56 328.82 32.03 328.69 33.24 328.73 33.84 328.77 34.7 328.69 35.48 328.69 36.15 328.77 37.11 328.77 38.39 328.82 39.79 328.82 40.93 328.77 41.71 328.69 42.57 328.64 43.42 328.64 49.57 328.59 49.84 328.27 50.16 327.64 50.21 327.01 50.21 326.37 50.11 325.78 49.92 325.51 49.47 325.37 48.47 325.32 47.52 325.37 46.52 325.32 45.21 325.41 44.11 325.46 42.48 325.51 40.61 325.46 39.38 325.46 38.39 325.37 37.61 325.32 36.84 325.22 36.12 325.05 35.8 324.73 35.43 324.01 35.29 322.95 35.21 321.87 35.24 321.1 35.16 320.14 35.16 319.1 35.07 318.32 35.11 317.82 35.07 317.09 35.06 317.09 32.05 317.33 32.06 319.1 32.06 320.23 32.11 321.1 32.16 321.96 32.11 323 32.2 324.28 32.11 324.92 31.89 325.22 31.47 325.37 31.12 325.46 30.11 325.51 29.07 325.51 27.84 325.59 26.57 325.51 25.25 325.46 23.56 325.46 20.75 325.64 19.39 325.78 18.7 326.18 18.39 327.09 18.24 328.14 18.34 328.46 18.53 328.77 19.25 328.77 20.16 328.82 21.12 328.82 23.02 328.91 24.34 328.82 25.29 328.77 26.71"/><polygon class="cls-2" points="314.85 32.01 314.85 35.02 312.41 34.97 310.91 34.89 309.1 34.97 307.33 35.02 306.42 35.38 306.27 35.7 306.23 36.71 306.14 37.61 306.05 38.79 306.05 39.97 306.14 41.79 306.14 47.21 306.1 48.25 305.96 48.98 305.87 49.7 305.65 49.97 305.28 50.11 304.28 50.11 303.51 50.02 303 49.7 302.82 48.79 302.92 47.48 302.92 46.47 302.82 45.98 302.87 44.79 302.96 43.52 302.87 42.75 302.87 38.39 302.92 37.2 302.96 35.21 302.96 34.2 302.92 32.75 302.92 29.75 302.87 28.29 302.96 27.38 302.96 25.06 303 24.02 303 23.02 303.05 21.66 303.05 20.57 303.09 19.79 303.14 18.8 303.24 18.43 303.41 18.16 303.73 18.11 304.37 18.16 305.6 18.16 305.87 18.29 306.1 19.02 306.23 20.25 306.27 21.57 306.14 22.94 306.19 24.47 306.19 25.29 306.14 27.16 306.14 30.43 306.23 30.98 306.42 31.34 306.91 31.71 307.46 31.89 308.14 32.03 309.05 31.98 310.09 32.03 312.41 32.03 313.32 32.06 314.42 32.03 314.85 32.01"/></g><g><path class="cls-2" d="M549.53,92.95l-.05-1.36v7.19l.09-1.5v-2.69l-.04-1.63Zm0,0l-.05-1.36v7.19l.09-1.5v-2.69l-.04-1.63Z"/><polygon class="cls-2" points="549.48 85.99 549.48 117.72 549.21 117.99 548.17 118.18 547.21 118.13 546.66 117.81 546.39 117.17 546.3 116.09 546.25 114.27 546.25 111.04 546.3 110.08 546.3 108.67 546.2 107.63 546.2 107.17 546.25 106.54 546.07 105.35 546.12 103.9 546.12 102.81 546.17 101.82 546.2 100.94 546.17 99.49 546.2 97.76 546.2 95.35 546.25 93.99 546.25 93.22 546.2 92.04 546.35 90.64 546.35 88.77 546.39 87.44 546.35 86.72 546.49 86.4 546.89 86.08 547.85 85.91 549.08 85.99 549.48 85.99"/><polygon class="cls-2" points="572.58 94.86 572.58 96.36 572.43 97.31 572.12 98.5 571.84 99.22 571.48 99.95 571.06 100.67 570.25 101.77 569.53 102.45 568.34 103.26 566.84 103.9 565.89 104.22 565.21 104.31 564.43 104.36 563.98 104.49 564.25 105.27 564.67 105.91 565.21 106.68 566.21 108.04 566.8 108.82 567.16 109.27 567.98 110.4 569.16 111.86 570.52 113.82 571.52 115.18 572.29 116.31 572.26 116.81 572.07 117.13 571.43 117.49 570.79 117.99 570.52 118.08 570.3 118.13 569.93 118.04 569.3 117.45 568.34 116.31 567.29 115.04 566.38 113.58 565.53 112.54 564.94 111.76 564.16 110.81 563.66 110.13 563.3 109.68 562.8 108.95 562.21 108.18 561.84 107.54 561.48 107.08 560.8 106.13 560.29 105.49 559.3 104.68 558.47 104.44 556.03 104.36 555.21 104.27 552.89 104.31 551.73 104.31 551.73 101.29 551.84 101.31 552.48 101.36 553.48 101.31 554.25 101.45 555.34 101.4 556.8 101.45 559.21 101.45 563.2 101.18 565.44 100.99 566.75 100.59 567.61 99.9 568.2 99.22 568.57 98.45 568.89 97.59 568.98 96.99 569.11 96.5 569.16 95.77 569.16 94.63 569.07 93.81 569.03 93.13 568.79 92.31 568.44 91.53 567.8 90.72 567.07 90.04 565.71 89.41 564.21 89.09 561.98 88.95 560.48 88.95 559.21 88.86 556.48 88.77 555.58 88.81 553.07 88.99 551.73 88.95 551.73 85.95 552.35 85.95 553.25 85.91 554.53 85.95 555.21 85.91 556.3 85.95 557.26 85.91 557.58 85.95 558.3 85.91 559.43 85.91 560.26 85.81 561.35 85.91 564.85 85.91 565.89 86.08 566.62 86.26 567.53 86.63 568.49 87.09 569.66 88 570.48 88.95 570.93 89.58 571.48 90.54 572.02 91.99 572.39 93.4 572.58 94.86"/></g><g><path class="cls-2" d="M374.41,24.88l-.05-1.36v7.19l.09-1.5v-2.69l-.04-1.63Zm0,0l-.05-1.36v7.19l.09-1.5v-2.69l-.04-1.63Z"/><polygon class="cls-2" points="374.36 17.93 374.36 49.66 374.09 49.93 373.04 50.11 372.09 50.06 371.53 49.74 371.26 49.11 371.18 48.03 371.13 46.21 371.13 42.98 371.18 42.02 371.18 40.61 371.08 39.56 371.08 39.11 371.13 38.48 370.94 37.29 370.99 35.84 370.99 34.75 371.04 33.75 371.08 32.88 371.04 31.43 371.08 29.7 371.08 27.29 371.13 25.93 371.13 25.15 371.08 23.97 371.23 22.57 371.23 20.71 371.26 19.38 371.23 18.66 371.36 18.34 371.77 18.02 372.72 17.85 373.95 17.93 374.36 17.93"/><polygon class="cls-2" points="397.45 26.8 397.45 28.3 397.3 29.24 397 30.44 396.71 31.16 396.36 31.88 395.94 32.61 395.13 33.7 394.4 34.39 393.21 35.2 391.71 35.84 390.77 36.16 390.08 36.25 389.31 36.29 388.85 36.43 389.12 37.2 389.54 37.84 390.08 38.62 391.09 39.98 391.68 40.75 392.03 41.21 392.86 42.34 394.04 43.8 395.4 45.75 396.39 47.12 397.17 48.25 397.13 48.75 396.95 49.07 396.31 49.43 395.67 49.93 395.4 50.01 395.18 50.06 394.81 49.98 394.17 49.39 393.21 48.25 392.17 46.98 391.26 45.52 390.4 44.48 389.81 43.7 389.04 42.74 388.53 42.07 388.18 41.61 387.67 40.89 387.08 40.11 386.72 39.48 386.36 39.02 385.67 38.06 385.17 37.42 384.17 36.61 383.35 36.38 380.91 36.29 380.08 36.21 377.76 36.25 376.61 36.25 376.61 33.22 376.72 33.25 377.36 33.3 378.35 33.25 379.12 33.38 380.22 33.33 381.68 33.38 384.09 33.38 388.08 33.11 390.31 32.93 391.63 32.52 392.49 31.84 393.08 31.16 393.45 30.39 393.77 29.53 393.85 28.92 393.99 28.43 394.04 27.71 394.04 26.57 393.95 25.74 393.9 25.07 393.67 24.24 393.31 23.47 392.67 22.66 391.95 21.97 390.58 21.35 389.09 21.03 386.85 20.89 385.35 20.89 384.09 20.79 381.36 20.71 380.45 20.74 377.94 20.93 376.61 20.89 376.61 17.88 377.22 17.88 378.13 17.85 379.41 17.88 380.08 17.85 381.18 17.88 382.13 17.85 382.45 17.88 383.18 17.85 384.31 17.85 385.13 17.75 386.22 17.85 389.72 17.85 390.77 18.02 391.49 18.2 392.4 18.57 393.36 19.02 394.54 19.93 395.35 20.89 395.8 21.52 396.36 22.48 396.9 23.93 397.27 25.34 397.45 26.8"/></g><path class="cls-2" d="M582.16,118.04l-.59-.27-.14-.36-.14-.45v-6.18l.05-1.18-.05-.73v-.77l.09-.68,.05-.32-.05-.27-.04-.55,.04-.95-.09-1.14,.05-1v-1.04l.09-1.14v-5l.05-1.77-.09-1.91,.05-1.36v-1.18l.09-1.36-.05-.86,.05-.68,.23-.55,.45-.18,.64-.09,.64,.09,.55,.05,.41,.23,.14,.32v.82l.05,.91v.77l.09,1.23,.05,1.23-.09,.68v.5l-.05,1.23-.05,1,.05,1.18,.14,.95v5.23l-.14,1v1.77l.09,.91-.09,1.36v2l.05,1.36-.05,.86-.05,1.09v.64l.05,1v1.23l-.05,.86v.82l-.27,.59-.64,.18h-.73l-.77-.09Z"/><g><polygon class="cls-2" points="598.3 85.87 598.3 108.4 598.25 109.41 598.25 110.45 598.16 111.31 598.2 112.27 598.11 113.67 598.11 115.04 598.06 116.49 598.06 117.45 597.79 117.86 596.97 117.94 596.29 117.91 595.88 117.86 595.34 117.86 594.93 117.45 594.83 117.03 594.8 115.99 594.8 110.67 594.83 109.31 594.83 106.81 594.93 105.99 594.83 104.86 594.83 104.27 594.88 103.45 594.88 102.13 594.97 100.86 595.02 99.44 595.02 95 595.12 94.04 595.15 92.63 595.15 87.68 595.25 86.82 595.39 86.36 595.61 86.08 596.06 85.91 596.65 85.91 598.11 85.86 598.3 85.87"/><polygon class="cls-2" points="621.11 94.86 621.06 96.23 620.92 97.44 620.7 98.63 620.38 99.49 620.11 100.18 619.74 100.81 619.38 101.5 619.02 101.9 618.52 102.4 618.06 102.76 617.25 103.36 616.06 104.04 615.11 104.31 613.65 104.49 612.66 104.54 611.61 104.54 610.29 104.44 609.2 104.44 608.25 104.49 606.88 104.36 600.54 104.36 600.54 101.24 603.43 101.36 604.75 101.36 606.8 101.45 607.79 101.45 609.47 101.53 610.89 101.53 611.65 101.58 612.88 101.53 613.65 101.4 614.34 101.31 615.15 100.99 615.74 100.64 616.43 100.13 616.93 99.58 617.39 98.95 617.61 98.27 617.74 97.59 617.88 96.58 617.93 95.49 617.93 94.49 617.79 93.59 617.42 92.27 616.97 91.31 616.48 90.72 615.65 90.08 614.83 89.68 612.88 89.36 612.39 89.31 611.02 89.31 609.66 89.36 609.11 89.41 608.38 89.41 607.71 89.45 607.25 89.45 606.61 89.41 604.48 89.49 601.8 89.49 600.88 89.45 600.54 89.46 600.54 85.96 601.52 85.99 603.52 85.95 604.29 85.99 607.71 85.99 609.66 86.04 610.97 86.08 611.88 86.18 612.74 86.23 614.29 86.45 615.06 86.58 616.02 86.82 616.56 87.04 617.66 87.68 619.02 88.72 619.47 89.31 620.11 90.27 620.75 92.17 620.92 93.04 621.06 93.99 621.11 94.86"/></g><path class="cls-2" d="M409.62,29.88l-3.13-4.07v.02l-.14,1.06v2.76l-.05,1.92v2.22l-.05,.68-.09,1.68,.05,1.5-.05,1.06,.09,1.13-.04,1.41-.05,.91,.05,1.95-.05,1.9v2.32l.09,.91,.18,.45,.5,.32,.81,.05h.69l.45-.15,.37-.31,.09-.74v-.95l.05-.82-.05-.5,.05-.49,.04-.64-.09-.77,.05-.45v-.68l.04-.96v-2.24l.05-.91v-2.41l.09-1.23-.04-.76-.05-1.28,.13-1.04v-2.87Zm22.32,3.23v-2.31l.05-.59-.05-1.09v-1.77l.05-1.51v-1.58l.09-1.04-.05-.96v-1.41l-.04-1.04,.04-.54-.09-.5-.22-.22-.37-.18-.5-.1-.68-.04-.59,.04-.28,.1-.36,.22-.1,.96-.04,1.31-.05,1.46v.81l-.05,1.19,.1,.95-.1,1.5-.04,1.14,.17,.91v1.36l-.04,1.18-.1,1.04v2.54l.1,1.68v2.19l-.1,.77v.43l3.19,4.03,.09-1.23-.18-1.23,.09-.74,.05-1.04,.05-.91v-2.31l-.05-1.04,.09-1.33-.09-1.09Zm-.06,14.64l-3.46-4.36-.02,.04-.22-.09-.37-.32-.49-.59-.37-.54-1.23-1.51-.59-.76-2.19-2.91-1.13-1.36-1.01-1.23-.81-1.14-.5-.63-.99-1.36-1.04-1.46-1.09-1.31-.45-.59-1.04-1.5-1.01-1.14-.68-.96-1.23-1.45-.64-.96-1.09-1.36-.72-1.04-.41-.36-.5-.42-1.04-.27-.72,.37-.23,.41-.09,.96v1.55l3.16,4.1,.02-.29,.18-.04,.36,.22,.37,.37,.68,.81,.96,1.33,.77,.95,.5,.69,.77,1.04,.91,1.13,.63,.91,.82,1.01,.72,.96,.69,.76,.72,1.01,.96,1.27,.49,.69,1.28,1.58,.5,.69,.86,1.04,1.23,1.6,.54,.72,1.04,1.27,.55,.74,.59,.86,.68,.72,.5,.59,.72,.96,.45,.54,.1,.14,.45,.28,.72,.09,.59-.05,.41-.09,.32-.18,.18-.81-.05-.82v-.45Z"/><g><polygon class="cls-2" points="341.97 49.42 341.76 49.83 340.17 49.88 338.79 49.62 338.43 49.15 338.3 48.53 338.25 47.66 338.17 46.85 338.17 46.13 338.2 45.31 338.25 44.36 338.2 43.1 338.25 41.93 338.25 41.37 338.3 40.52 338.3 37.44 338.35 36.22 338.35 35.31 338.25 33.37 338.25 32.33 338.2 30.75 338.25 29.89 338.25 28.99 338.35 27.77 338.38 26.64 338.48 25.87 338.52 24.6 338.52 23.56 338.57 21.48 338.57 19.09 338.7 18.55 338.79 18.27 339.1 17.97 340.17 17.82 341.04 17.87 341.97 17.88 342.05 18.03 341.97 49.42"/><polygon class="cls-2" points="362.83 19.91 362.66 20.5 362.39 20.85 361.73 21.08 360.29 21.17 356.92 21.08 355.33 21.08 354.4 20.98 352.84 20.95 349.11 20.95 349.11 20.9 348.71 20.9 347.61 20.95 345.41 20.98 344.2 20.98 344.12 20.99 344.12 17.82 344.8 17.82 346.34 18 348.61 17.97 349.96 17.98 349.96 17.99 352.29 17.97 355.38 17.97 356.65 17.92 358.75 17.92 360.46 17.97 361.78 18.05 362.45 18.37 362.77 19 362.83 19.91"/><polygon class="cls-2" points="356.31 32.7 356.22 33.42 356.16 34.01 356.1 34.46 355.88 34.77 355.44 34.96 355.05 35.01 354.28 34.96 353.29 34.96 351.64 34.91 349.53 34.96 349.11 34.94 349.11 34.78 348.93 34.77 347.38 34.77 346.06 34.82 345.24 34.91 344.12 34.83 344.12 31.65 344.29 31.67 345.96 31.67 349.04 31.74 349.96 31.74 349.96 31.79 354.89 31.79 355.5 31.88 355.99 32.07 356.31 32.7"/><polygon class="cls-2" points="362.94 47.8 362.88 48.65 362.77 49.33 362.45 49.69 362.16 49.88 361.84 49.93 361.24 49.97 360.57 50.07 360.07 50.07 358.97 49.93 357.64 50.02 356.25 49.97 350.7 49.88 349.96 49.86 349.96 49.89 348.71 49.93 346.89 49.88 344.12 49.88 344.12 46.87 344.86 46.9 345.79 46.94 346.51 46.85 348.22 46.85 348.71 46.9 349.11 46.89 349.11 46.76 352.95 46.76 354.17 46.9 355.76 46.9 356.77 46.94 362.05 46.94 362.51 47.16 362.94 47.8"/></g></g><text class="cls-4" transform="translate(65.16 348.88)"><tspan class="cls-3" x="0" y="0">CU</tspan><tspan class="cls-1" x="54.85" y="0">ST</tspan><tspan class="cls-3" x="103.39" y="0" xml:space="preserve">OM  </tspan><tspan class="cls-5" x="190.88" y="0">W</tspan><tspan class="cls-3" x="225.56" y="0">OO</tspan><tspan class="cls-5" x="285.53" y="0">DW</tspan><tspan class="cls-3" x="348.09" y="0">ORKING</tspan></text></g></svg>