<?xml version="1.0" encoding="UTF-8"?><svg id="Layer_2" xmlns="http://www.w3.org/2000/svg" viewBox="0 0 937.86 86.49"><defs><style>.cls-1{fill:#e0e0d1;}.cls-2{fill:#2b2a28;}.cls-3,.cls-4{opacity:.68;}.cls-4{fill:none;stroke:#2b2a28;stroke-miterlimit:10;stroke-width:.08px;}</style></defs><g id="Board4"><g><path class="cls-1" d="M876.29,.83c-16.49,.24-45.94,.66-62.08,.83-2.85,.36-4.59,3.82-5.8,6.2l-.78-1.33c5.29,.5,10.45,1.43,15.58,2.64,27.92,6.52,54.91,22.95,54.74,54.84-.1,4.17,.24,8.59,.22,12.78,0,.2-.01,.39-.06,.71-.08,.2,.04,.3-.41,.98-1.03,1.29-2.92,.23-2.65,.15-.49-.52-.56-.71-.85-1.19-.83-1.41-1.57-2.83-2.44-4.18-18.73-29.16-56.72-35.73-89.04-35.39-181.83,0-444.77,0-626.18,0-52.18-.04-104.36-1.05-156.54-1.66,62.3-.81,125.48-1.9,187.85-1.67,168.16,0,426.49,0,594.87,0,31.01-.27,66.05,5.43,87.15,30.44,2.88,3.42,5.25,7.26,7.42,11.14,.05,.09,.17,.22,.03,.07,.37,.03-1.31-.9-2.23,.22-.35,.55-.21,.47-.26,.52,.06-4.11-.29-8.74-.21-12.92,.41-29.44-26.22-46.17-51.96-52.65-5.44-1.42-10.99-2.51-16.55-3.11,.84-1.81,1.81-3.61,3.06-5.16,1.19-1.48,3.05-3.23,5.31-3.09h1.12c15.37,.17,45.07,.6,60.67,.82h0Z"/><path class="cls-1" d="M893.29,46.67c-.38-5.5-1.64-11.08-4.85-15.63-3.04-4.2-7.34-7.88-12.15-9.8l-8.96-3.25c12.77,0,44.76,0,57.53,0,.73,.02,2.88-.01,3.6,0,4.47-.42,8.91,2.89,9.34,7.46,.23,1.84-.3,3.64-.76,5.37-2.89,9.46-8.32,17.84-14.2,25.63-3.97,5.14-8.33,9.98-13.1,14.41-9.31,8.84-21.49,16.44-34.77,15.58,6.43-.57,12.3-3.26,17.56-6.62,10.65-6.75,20.04-15.34,27.68-25.4,6.04-8.08,11.86-16.83,14.18-26.71,.9-3.73-2.21-6.79-5.91-6.38-9.05,0-42.06,0-51.65,0l.52-3.25c11.95,4.36,17.51,16.46,15.95,28.6h0Z"/><path class="cls-1" d="M808.27,48.47c1.04-1.16,2.08-2.32,3.24-3.59,.37,.15,.84,.36,1.33,.53,.13,.05,.33,.08,.46,.05l1.3,.56c.06,7.19,4.3,14.01,11.33,17.03s14.89,1.38,20.14-3.54l4.86,2.08c.35,.52,.81,.61,1.31,.56,.31-.03,.65-.1,.99-.15-.13,.13-.26,.27-.39,.41-.66,.69-1.33,1.39-2.02,2.05-.18,.17-.56,.22-.84,.19-1.23-.13-2.44-.37-3.67-.43-.44-.03-1.07,.19-1.3,.52-.19,.26,.1,.86,.19,1.3,0,.02,.05,.03,.06,.05,.1,1.29,1.11,1.06,2.01,1.28-1.03,.56-2.06,1.14-3.12,1.66-.18,.09-.5-.04-.73-.14-1.15-.51-2.28-1.09-3.45-1.54-.39-.15-.98-.13-1.34,.07-.45,.25-.28,.81-.3,1.3-.04,1.18,.65,1.52,1.62,1.72,0,.07-.02,.15-.03,.22-1.17,.21-2.33,.44-3.5,.61-.16,.02-.39-.21-.56-.36-1.1-.98-2.19-1.98-3.4-3.07l.02-.51c.14-.31,.3-.65,.43-1,.06-.16,.03-.42-.07-.55-.05-.06-.18-.1-.29-.1v-.05c-.06,0-.12,.01-.16,.04-.13,.08-.22,.34-.2,.51,.1,.78,.12,1.5-.71,1.96-.17,.09-.24,.37-.33,.58-.04,.09,.01,.21-.03,.3-.49,1.08,.07,1.74,1.02,2.24-.04,.06-.08,.12-.12,.18-1.16-.16-2.32-.3-3.47-.49-.17-.03-.34-.29-.45-.48-.66-1.13-1.31-2.27-1.95-3.42-.26-.47-.64-.85-1.16-.65-.37,.14-.63,.56-.94,.87-.84,.86-.36,1.63,.12,2.5-1.01-.47-2.03-.93-3.02-1.44-.2-.11-.36-.42-.42-.66-.29-1.26-.48-2.54-.81-3.78-.11-.41-.45-.89-.82-1.07-.5-.24-.99,.07-1.27,.59-.05,.09-.11,.2-.18,.23-.76,.22-.64,.75-.47,1.3,.07,.24,.17,.48,.25,.72-.07,.04-.13,.08-.2,.12-.76-.72-1.55-1.42-2.27-2.18-.21-.22-.35-.62-.32-.93,.09-1.26,.26-2.51,.4-3.76,.06-.54,.04-1.04-.5-1.35-.52-.3-.99-.2-1.39,.24-.05,.05-.12,.13-.18,.13-.91-.07-.89,.57-.91,1.18,0,.22-.03,.45-.19,.72-.54-1-1.11-1.99-1.61-3-.1-.2-.02-.55,.08-.78,.5-1.16,1.01-2.32,1.56-3.45,.25-.51,.31-.98-.06-1.44-.37-.45-.84-.43-1.33-.21-.09,.04-.2,.1-.28,.08-.76-.25-1.02,.2-1.2,.81-.06,.21-.18,.4-.45,.6-.2-1.13-.42-2.25-.59-3.39-.03-.17,.16-.41,.3-.57Z"/><path class="cls-1" d="M813.36,29.72c.13-.13,.26-.27,.39-.4,.66-.69,1.33-1.39,2.02-2.04,.18-.17,.56-.22,.84-.19,1.22,.13,2.44,.37,3.67,.43,.44,.03,1.07-.19,1.3-.52,.18-.26-.1-.86-.19-1.3,0-.02-.05-.03-.06-.05-.1-1.29-1.11-1.06-2.01-1.28,1.03-.56,2.06-1.14,3.12-1.66,.18-.09,.5,.04,.73,.14,1.15,.51,2.28,1.09,3.45,1.54,.39,.15,.98,.13,1.34-.07,.45-.25,.28-.81,.3-1.3,.04-1.18-.65-1.52-1.62-1.72,.01-.07,.02-.15,.03-.22,1.17-.21,2.33-.44,3.5-.61,.16-.02,.39,.21,.56,.36,1.1,.98,2.19,1.98,3.4,3.07l-.02,.51c-.14,.31-.3,.65-.43,1-.06,.16-.03,.42,.07,.55,.05,.06,.18,.1,.29,.1v.05c.06,0,.12-.01,.16-.04,.13-.08,.22-.34,.2-.51-.1-.78-.12-1.5,.71-1.96,.17-.09,.24-.37,.33-.58,.04-.09-.01-.21,.02-.3,.49-1.08-.07-1.74-1.02-2.24,.04-.06,.08-.12,.12-.17,1.16,.16,2.32,.3,3.47,.49,.17,.03,.34,.29,.45,.47,.66,1.13,1.31,2.27,1.95,3.42,.26,.47,.64,.85,1.16,.65,.37-.14,.63-.56,.94-.87,.84-.86,.36-1.63-.12-2.5,1.01,.47,2.03,.93,3.02,1.44,.2,.11,.36,.42,.42,.66,.28,1.26,.48,2.54,.81,3.78,.11,.41,.45,.89,.82,1.07,.5,.24,.99-.07,1.27-.59,.05-.09,.11-.21,.18-.23,.76-.22,.64-.75,.47-1.3-.07-.24-.17-.48-.25-.72,.07-.04,.13-.08,.2-.12,.76,.72,1.55,1.42,2.27,2.18,.21,.22,.35,.62,.32,.93-.09,1.25-.25,2.51-.4,3.76-.06,.54-.04,1.04,.5,1.35,.52,.3,.99,.2,1.39-.24,.05-.05,.12-.13,.18-.13,.91,.07,.89-.57,.91-1.18,0-.22,.03-.45,.19-.72,.54,1,1.11,1.98,1.61,3,.1,.2,.02,.55-.08,.78-.5,1.16-1.01,2.32-1.56,3.45-.25,.52-.31,.98,.06,1.44,.37,.45,.84,.43,1.33,.21,.09-.04,.2-.1,.28-.08,.76,.25,1.02-.2,1.2-.82,.06-.21,.18-.4,.45-.6,.2,1.13,.42,2.25,.59,3.39,.03,.17-.16,.41-.31,.57-1.03,1.17-2.08,2.32-3.24,3.59-.37-.15-.84-.36-1.33-.53-.14-.05-.33-.08-.46-.05l-1.3-.56c-.06-7.19-4.29-14.01-11.33-17.02-7.03-3.01-14.89-1.38-20.14,3.53l-4.86-2.08c-.35-.52-.8-.6-1.31-.56-.32,.03-.65,.1-.99,.15Z"/><path class="cls-4" d="M846.55,59.7c-5.47,5.19-13.6,6.96-20.84,3.85s-11.57-10.21-11.58-17.75"/><path class="cls-4" d="M820.07,31.94c5.44-5.1,13.54-6.81,20.79-3.7,7.24,3.1,11.6,10.15,11.65,17.61"/><g class="cls-3"><path class="cls-2" d="M808.67,51.05c-.15-.66-.69-1.64-.15-2.21l.49-.57c.67-.74,1.33-1.48,2.06-2.16-.73,1-1.56,1.95-2.39,2.87-.45,.44-.04,1.46-.02,2.07h0Z"/></g><g class="cls-3"><path class="cls-2" d="M811.41,58.34c-.34-.59-1.14-1.36-.79-2.07l.3-.68c.42-.9,.83-1.81,1.33-2.67-.4,1.17-.91,2.32-1.43,3.44-.3,.56,.4,1.41,.6,1.98h0Z"/></g><g class="cls-3"><path class="cls-2" d="M822.91,68.68c-.62-.28-1.72-.46-1.84-1.24l-.15-.73c-.17-.98-.35-1.96-.44-2.95,.28,.96,.48,1.93,.68,2.91l.13,.73c.08,.64,1.13,.92,1.63,1.28h0Z"/></g><g class="cls-3"><path class="cls-2" d="M830.57,70.77c-.68-.05-1.77,.18-2.16-.5l-.4-.63c-.51-.85-1.03-1.7-1.46-2.6,.61,.79,1.13,1.64,1.67,2.48l.38,.64c.3,.57,1.38,.46,1.98,.62h0Z"/></g><g class="cls-3"><path class="cls-2" d="M838.28,70.54c-.66,.15-1.64,.69-2.21,.15l-.57-.49c-.74-.67-1.48-1.33-2.16-2.06,1,.73,1.95,1.56,2.87,2.39,.44,.45,1.46,.04,2.07,.02h0Z"/></g><g class="cls-3"><path class="cls-2" d="M845.71,67.87c-.59,.34-1.38,1.13-2.08,.77l-.68-.3c-.9-.43-1.8-.85-2.66-1.36,1.17,.41,2.32,.93,3.43,1.47,.55,.31,1.41-.38,1.99-.58h0Z"/></g><g class="cls-3"><path class="cls-2" d="M851.82,62.93c-.47,.5-.99,1.48-1.76,1.35l-.74-.09c-.98-.15-1.97-.29-2.94-.53,1,.04,1.98,.17,2.97,.29l.74,.11c.63,.13,1.23-.77,1.73-1.13h0Z"/></g><g class="cls-3"><path class="cls-2" d="M816.43,64.5c-.52-.43-1.55-.9-1.46-1.67l.04-.74c.09-.99,.17-1.98,.34-2.97,.02,1.24-.06,2.5-.17,3.73-.08,.64,.85,1.18,1.24,1.66h0Z"/></g><g class="cls-3"><path class="cls-2" d="M857.95,40.79c.15,.66,.69,1.64,.15,2.21l-.49,.57c-.67,.74-1.33,1.48-2.06,2.16,.73-1,1.56-1.95,2.39-2.87,.45-.44,.04-1.46,.02-2.07h0Z"/></g><g class="cls-3"><path class="cls-2" d="M855.21,33.5c.34,.59,1.14,1.36,.79,2.07l-.3,.68c-.42,.9-.83,1.81-1.33,2.67,.4-1.17,.91-2.32,1.43-3.44,.3-.56-.4-1.41-.6-1.98h0Z"/></g><g class="cls-3"><path class="cls-2" d="M843.71,23.16c.62,.28,1.72,.46,1.84,1.24l.15,.73c.17,.98,.35,1.96,.44,2.95-.28-.96-.48-1.93-.68-2.91l-.13-.73c-.08-.64-1.13-.92-1.63-1.28h0Z"/></g><g class="cls-3"><path class="cls-2" d="M836.05,21.07c.68,.05,1.77-.18,2.16,.5l.4,.63c.51,.85,1.03,1.7,1.46,2.6-.61-.79-1.13-1.64-1.67-2.48l-.38-.64c-.3-.57-1.38-.46-1.98-.62h0Z"/></g><g class="cls-3"><path class="cls-2" d="M828.34,21.3c.66-.15,1.64-.69,2.21-.15l.57,.49c.74,.67,1.48,1.33,2.16,2.06-1-.73-1.95-1.56-2.87-2.39-.44-.45-1.46-.04-2.07-.02h0Z"/></g><g class="cls-3"><path class="cls-2" d="M820.91,23.97c.59-.34,1.38-1.13,2.08-.77l.68,.3c.9,.43,1.8,.85,2.66,1.36-1.17-.41-2.32-.93-3.43-1.47-.55-.31-1.41,.38-1.99,.58h0Z"/></g><g class="cls-3"><path class="cls-2" d="M814.8,28.91c.47-.5,.99-1.48,1.76-1.35l.74,.09c.98,.15,1.97,.29,2.94,.53-1-.04-1.98-.17-2.97-.29l-.74-.11c-.63-.13-1.23,.77-1.73,1.13h0Z"/></g><g class="cls-3"><path class="cls-2" d="M850.19,27.34c.52,.43,1.55,.9,1.46,1.67l-.04,.74c-.09,.99-.17,1.98-.34,2.97-.02-1.24,.06-2.5,.17-3.73,.08-.64-.85-1.18-1.24-1.66h0Z"/></g></g></g></svg>